<svg xmlns="http://www.w3.org/2000/svg" viewBox="0 0 100 100" width="100" height="100">
<g fill="none" stroke-linecap="round" stroke-linejoin="round">
<circle cx="50" cy="50" r="44" fill="none" stroke="#C0673C" stroke-width="2.4"/>
<circle cx="50" cy="50" r="38.5" fill="none" stroke="#C0673C" stroke-width="1" opacity="0.5"/>
<line x1="88.5" y1="50.0" x2="93.0" y2="50.0" stroke="#C0673C" stroke-width="1" opacity="0.45"/>
<line x1="83.3" y1="69.2" x2="87.2" y2="71.5" stroke="#C0673C" stroke-width="1" opacity="0.45"/>
<line x1="69.2" y1="83.3" x2="71.5" y2="87.2" stroke="#C0673C" stroke-width="1" opacity="0.45"/>
<line x1="50.0" y1="88.5" x2="50.0" y2="93.0" stroke="#C0673C" stroke-width="1" opacity="0.45"/>
<line x1="30.8" y1="83.3" x2="28.5" y2="87.2" stroke="#C0673C" stroke-width="1" opacity="0.45"/>
<line x1="16.7" y1="69.2" x2="12.8" y2="71.5" stroke="#C0673C" stroke-width="1" opacity="0.45"/>
<line x1="11.5" y1="50.0" x2="7.0" y2="50.0" stroke="#C0673C" stroke-width="1" opacity="0.45"/>
<line x1="16.7" y1="30.7" x2="12.8" y2="28.5" stroke="#C0673C" stroke-width="1" opacity="0.45"/>
<line x1="30.7" y1="16.7" x2="28.5" y2="12.8" stroke="#C0673C" stroke-width="1" opacity="0.45"/>
<line x1="50.0" y1="11.5" x2="50.0" y2="7.0" stroke="#C0673C" stroke-width="1" opacity="0.45"/>
<line x1="69.2" y1="16.7" x2="71.5" y2="12.8" stroke="#C0673C" stroke-width="1" opacity="0.45"/>
<line x1="83.3" y1="30.7" x2="87.2" y2="28.5" stroke="#C0673C" stroke-width="1" opacity="0.45"/>
<path d="M50,9.7 C53.2,13.0 53.2,18.0 50,19.7 C46.8,18.0 46.8,13.0 50,9.7 Z" fill="#C0673C"/>

<path d="M50,30 C54,34.5 55.5,38 53.5,41.5 C52,44 48,44 46.5,41.5 C44.5,38 46,34.5 50,30 Z" stroke="#20566A" stroke-width="2.5"/>
<path d="M50,35.4 C52,37.9 52.8,39.5 51.8,41.2 C51,42.5 49,42.5 48.2,41.2 C47.2,39.5 48,37.9 50,35.4 Z" fill="#C0673C" stroke="none"/>
<rect x="38" y="48.5" width="24" height="17" rx="2.4" stroke="#20566A" stroke-width="2.4"/>
<line x1="42.5" y1="53" x2="57.5" y2="53" stroke="#20566A" stroke-width="1.5"/>
<line x1="42.5" y1="57" x2="57.5" y2="57" stroke="#20566A" stroke-width="1.5"/>
<line x1="42.5" y1="61" x2="57.5" y2="61" stroke="#20566A" stroke-width="1.5"/>
<rect x="31.6" y="45.5" width="4.6" height="23" rx="2.3" stroke="#20566A" stroke-width="2.3"/>
<rect x="63.8" y="45.5" width="4.6" height="23" rx="2.3" stroke="#20566A" stroke-width="2.3"/>

</g></svg>
